# xmcd
#
# Track frame offsets:
#	150
#	11732
#	30349
#	57750
#	73839
#	86992
#	97201
#	111869
#	127177
#	139852
#	150821
#	171577
#	189588
#	205617
#	223329
#
# Disc length: 3177 seconds
#
# Revision: 1
# Processed by: cddbd v1.5.1PL0 Copyright (c) Steve Scherf et al.
# Submitted via: audiograbber 1.83.01
#
DISCID=df0c670f
DTITLE=Jim Almand - Live at the i.e. Theatre
DYEAR=2004
DGENRE=
TTITLE0=Words From My Mind
TTITLE1=Without You
TTITLE2=Wild Bill
TTITLE3=Turn It Around
TTITLE4=I Can Do Anything
TTITLE5=I Remember You
TTITLE6=Realise Your Love
TTITLE7=A Man From Your Side Of Town
TTITLE8=It's Alright
TTITLE9=Why Can't I Be With You
TTITLE10=God I Wish You'd Stayed
TTITLE11=Wasilla
TTITLE12=The Likes Of You
TTITLE13=Dream
TTITLE14=Runaway Train
EXTD=
EXTT0=
EXTT1=
EXTT2=
EXTT3=
EXTT4=
EXTT5=
EXTT6=
EXTT7=
EXTT8=
EXTT9=
EXTT10=
EXTT11=
EXTT12=
EXTT13=
EXTT14=
PLAYORDER=
